<svg width="20" height="20" viewBox="0 0 20 20" fill="none" xmlns="http://www.w3.org/2000/svg">
<g clip-path="url(#clip0_33_645)">
<path d="M10.725 12.5583L8.60833 10.4667L8.63333 10.4417C10.0833 8.82499 11.1167 6.96666 11.725 4.99999H14.1667V3.33332H8.33333V1.66666H6.66666V3.33332H0.833328V4.99166H10.1417C9.58333 6.59999 8.69999 8.12499 7.49999 9.45832C6.72499 8.59999 6.08333 7.65832 5.57499 6.66666H3.90833C4.51666 8.02499 5.34999 9.30832 6.39166 10.4667L2.14999 14.65L3.33333 15.8333L7.49999 11.6667L10.0917 14.2583L10.725 12.5583ZM15.4167 8.33332H13.75L9.99999 18.3333H11.6667L12.6 15.8333H16.5583L17.5 18.3333H19.1667L15.4167 8.33332ZM13.2333 14.1667L14.5833 10.5583L15.9333 14.1667H13.2333Z" fill="#1D242E"/>
</g>
<defs>
<clipPath id="clip0_33_645">
<rect width="20" height="20" fill="white"/>
</clipPath>
</defs>
</svg>
